<svg version="1.1" id="Layer_1" xmlns="http://www.w3.org/2000/svg" xmlns:xlink="http://www.w3.org/1999/xlink" x="0px" y="0px"
	 width="100%" viewBox="0 0 200 200" enable-background="new 0 0 200 200" xml:space="preserve">
<path fill="#EE2F25" opacity="1.000000" stroke="none" 
	d="
M32.000000,201.000000 
	C21.672722,201.000000 11.345444,201.000000 1.013624,201.000000 
	C1.009083,134.378448 1.009083,67.756905 1.009083,1.067680 
	C67.582428,1.067680 134.164932,1.067680 200.873718,1.067680 
	C200.873718,67.543205 200.873718,134.086731 200.873718,201.000000 
	C162.646561,201.000000 124.291939,201.000000 85.475800,200.601562 
	C83.785797,195.436081 82.557312,190.669037 81.787720,185.847900 
	C99.696068,184.893387 110.855904,177.046555 110.416985,156.000717 
	C110.007156,136.349808 110.358818,116.683128 110.353897,97.023392 
	C110.353615,95.895172 110.160233,94.766991 110.042564,93.484467 
	C103.959618,93.484467 98.088982,93.484467 91.998352,93.484467 
	C91.998352,115.165588 92.039085,136.482193 91.980797,157.798538 
	C91.952568,168.124756 85.617256,172.020462 75.963326,167.414215 
	C69.083038,141.075806 62.159237,115.124046 55.406399,89.127884 
	C54.647884,86.207870 54.856823,83.036545 54.708031,79.931320 
	C54.798931,79.880867 54.897068,79.481926 55.220062,79.321808 
	C64.215866,72.887657 65.566826,57.964081 57.805439,49.263973 
	C49.721451,40.202244 36.117371,38.757397 26.840273,46.399063 
	C23.843182,48.867805 21.638184,52.298161 18.786045,55.078064 
	C18.388798,54.564793 18.103674,54.198349 18.188532,53.968491 
	C23.975721,38.292435 44.481892,33.432446 56.793697,44.796528 
	C57.854588,45.775753 58.953144,46.714172 60.034203,47.671547 
	C57.395912,40.065674 51.493313,35.971584 42.948948,33.982082 
	C40.803486,33.482525 39.025311,31.405544 37.454193,30.011879 
	C38.821060,29.642855 39.812077,29.315462 40.803097,28.988068 
	C40.381130,28.156683 40.102955,27.195833 39.500622,26.526842 
	C38.756023,25.699842 37.742207,25.115229 36.871098,24.008005 
	C35.126720,20.461254 33.355953,17.332382 32.005371,14.945957 
	C32.024544,15.299342 32.244701,16.629412 32.135693,17.931932 
	C31.926682,20.429344 31.530777,22.911114 31.140083,25.740742 
	C30.386433,27.835388 29.705112,29.588669 29.023792,31.341949 
	C29.746649,31.528038 30.469503,31.714127 31.208607,32.299656 
	C30.329620,34.054485 29.738853,35.897842 28.485767,36.679703 
	C23.411308,39.845905 19.385935,43.716461 17.359064,49.528614 
	C16.308695,52.540596 14.892371,55.373638 17.893276,58.452053 
	C17.071835,65.867386 19.270216,71.979866 23.846306,77.197037 
	C24.763479,78.242706 26.648998,78.439018 28.158360,79.345566 
	C29.478062,80.132019 30.727434,80.599846 32.068291,81.442749 
	C32.731663,84.153481 33.828941,86.496361 33.796951,88.823715 
	C33.282986,126.216980 32.625145,163.608261 32.000000,201.000000 
M179.529327,177.012283 
	C189.780960,165.789169 189.068634,147.885712 176.895416,139.107819 
	C169.320908,133.645981 160.298111,130.167572 151.845459,125.959389 
	C147.699921,123.895500 143.941345,121.050484 144.540268,116.320068 
	C144.914062,113.367714 147.437744,109.886681 150.015366,108.196373 
	C154.192200,105.457359 158.711090,107.024315 162.336853,110.295090 
	C164.127396,111.910347 165.611511,113.865318 167.236130,115.668655 
	C172.022049,112.614532 176.621262,109.679565 181.332764,106.672943 
	C176.834381,98.190910 169.774628,94.063049 161.035187,92.395676 
	C144.789246,89.296165 130.704178,97.727722 127.623871,112.340042 
	C125.099525,124.315010 130.261719,134.629517 141.980637,140.706680 
	C149.053574,144.374542 156.317673,147.682785 163.308670,151.495880 
	C167.007172,153.513153 169.360962,156.779373 168.374573,161.405762 
	C167.397324,165.989212 164.348679,168.668839 159.895554,169.470352 
	C157.496887,169.902100 154.585495,170.351395 152.552414,169.404144 
	C146.736572,166.694412 141.251541,163.274704 134.803696,159.668457 
	C131.671280,161.628738 127.209412,164.420990 122.795143,167.183472 
	C132.522614,186.628769 162.854904,191.966003 179.529327,177.012283 
z"/>
<path fill="#BCB9CD" opacity="1.000000" stroke="none" 
	d="
M73.000000,201.000000 
	C65.645752,201.000000 58.291500,201.000000 50.468750,200.563675 
	C49.336994,194.533768 48.645321,188.943390 48.015873,183.346008 
	C46.238209,167.538086 44.562672,151.718292 42.705086,135.919846 
	C40.209286,114.693542 37.605740,93.479729 34.953560,72.272423 
	C34.773613,70.833542 33.799065,69.494034 33.192478,67.738014 
	C35.317665,64.646263 37.444439,61.924816 39.571213,59.203369 
	C40.767826,61.730595 42.461895,64.141899 43.082100,66.803436 
	C47.907101,87.509430 52.595104,108.248207 57.179054,129.009171 
	C59.610233,140.020111 61.749760,151.095444 63.846474,162.424683 
	C62.038006,163.833618 60.441193,165.018692 58.762836,166.074081 
	C54.278927,168.893646 53.794598,170.125702 57.644138,173.930374 
	C61.351192,177.594208 65.835426,180.471695 69.976166,184.132675 
	C70.982765,190.047119 71.991386,195.523560 73.000000,201.000000 
z"/>
<path fill="#D5D4E3" opacity="1.000000" stroke="none" 
	d="
M33.194069,68.108315 
	C33.799065,69.494034 34.773613,70.833542 34.953560,72.272423 
	C37.605740,93.479729 40.209286,114.693542 42.705086,135.919846 
	C44.562672,151.718292 46.238209,167.538086 48.015873,183.346008 
	C48.645321,188.943390 49.336994,194.533768 50.000130,200.563675 
	C44.311958,201.000000 38.623920,201.000000 32.467941,201.000000 
	C32.625145,163.608261 33.282986,126.216980 33.796951,88.823715 
	C33.828941,86.496361 32.731663,84.153481 32.432930,81.313385 
	C32.868744,76.575401 33.031406,72.341858 33.194069,68.108315 
z"/>
<path fill="#9D9BA8" opacity="1.000000" stroke="none" 
	d="
M73.460632,201.000000 
	C71.991386,195.523560 70.982765,190.047119 70.384346,184.196960 
	C74.305977,184.516159 77.817406,185.209076 81.328827,185.901978 
	C82.557312,190.669037 83.785797,195.436081 85.007141,200.601562 
	C81.307091,201.000000 77.614182,201.000000 73.460632,201.000000 
z"/>
<path fill="#FFFCFC" opacity="1.000000" stroke="none" 
	d="
M179.270630,177.264038 
	C162.854904,191.966003 132.522614,186.628769 122.795143,167.183472 
	C127.209412,164.420990 131.671280,161.628738 134.803696,159.668457 
	C141.251541,163.274704 146.736572,166.694412 152.552414,169.404144 
	C154.585495,170.351395 157.496887,169.902100 159.895554,169.470352 
	C164.348679,168.668839 167.397324,165.989212 168.374573,161.405762 
	C169.360962,156.779373 167.007172,153.513153 163.308670,151.495880 
	C156.317673,147.682785 149.053574,144.374542 141.980637,140.706680 
	C130.261719,134.629517 125.099525,124.315010 127.623871,112.340042 
	C130.704178,97.727722 144.789246,89.296165 161.035187,92.395676 
	C169.774628,94.063049 176.834381,98.190910 181.332764,106.672943 
	C176.621262,109.679565 172.022049,112.614532 167.236130,115.668655 
	C165.611511,113.865318 164.127396,111.910347 162.336853,110.295090 
	C158.711090,107.024315 154.192200,105.457359 150.015366,108.196373 
	C147.437744,109.886681 144.914062,113.367714 144.540268,116.320068 
	C143.941345,121.050484 147.699921,123.895500 151.845459,125.959389 
	C160.298111,130.167572 169.320908,133.645981 176.895416,139.107819 
	C189.068634,147.885712 189.780960,165.789169 179.270630,177.264038 
z"/>
<path fill="#FFFEFD" opacity="1.000000" stroke="none" 
	d="
M81.787720,185.847900 
	C77.817406,185.209076 74.305977,184.516159 70.386368,183.758957 
	C65.835426,180.471695 61.351192,177.594208 57.644138,173.930374 
	C53.794598,170.125702 54.278927,168.893646 58.762836,166.074081 
	C60.441193,165.018692 62.038006,163.833618 64.192398,162.349274 
	C66.183327,161.397522 67.653847,160.804153 69.124374,160.210785 
	C68.678535,160.752151 68.232697,161.293518 67.786858,161.834885 
	C70.514633,163.819183 73.242416,165.803482 75.970200,167.787781 
	C85.617256,172.020462 91.952568,168.124756 91.980797,157.798538 
	C92.039085,136.482193 91.998352,115.165588 91.998352,93.484467 
	C98.088982,93.484467 103.959618,93.484467 110.042564,93.484467 
	C110.160233,94.766991 110.353615,95.895172 110.353897,97.023392 
	C110.358818,116.683128 110.007156,136.349808 110.416985,156.000717 
	C110.855904,177.046555 99.696068,184.893387 81.787720,185.847900 
z"/>
<path fill="#9D9AA7" opacity="1.000000" stroke="none" 
	d="
M75.963318,167.414215 
	C73.242416,165.803482 70.514633,163.819183 67.786858,161.834885 
	C68.232697,161.293518 68.678535,160.752151 69.124374,160.210785 
	C67.653847,160.804153 66.183327,161.397522 64.366882,162.066299 
	C61.749760,151.095444 59.610233,140.020111 57.179054,129.009171 
	C52.595104,108.248207 47.907101,87.509430 43.082100,66.803436 
	C42.461895,64.141899 40.767826,61.730595 39.571213,59.203369 
	C37.444439,61.924816 35.317665,64.646263 33.192478,67.738014 
	C33.031406,72.341858 32.868744,76.575401 32.341446,80.938309 
	C30.727434,80.599846 29.478062,80.132019 28.118473,79.027145 
	C27.679241,77.879745 27.350225,77.369385 27.035004,76.460403 
	C24.615206,69.284599 24.338686,62.507195 27.169701,55.436668 
	C29.221729,53.470879 31.150791,51.797913 33.498333,50.111240 
	C40.142303,48.402893 46.091671,49.307613 52.041634,52.281788 
	C53.822643,54.265572 55.412888,55.970173 56.730293,57.905319 
	C56.534218,62.791290 56.757496,67.451370 56.609810,72.099670 
	C56.556744,73.769890 55.610275,75.411720 55.036308,77.033257 
	C55.001068,77.000000 55.073421,77.066689 54.744095,76.952850 
	C54.482224,77.886604 54.549675,78.934181 54.617126,79.981766 
	C54.856823,83.036545 54.647884,86.207870 55.406399,89.127884 
	C62.159237,115.124046 69.083038,141.075806 75.963318,167.414215 
z"/>
<path fill="#FEF4F2" opacity="1.000000" stroke="none" 
	d="
M33.079849,50.124947 
	C31.150791,51.797913 29.221729,53.470879 26.828457,55.603790 
	C21.567568,62.912899 21.790092,69.956635 27.021210,76.859032 
	C27.350225,77.369385 27.679241,77.879745 28.048143,78.708527 
	C26.648998,78.439018 24.763479,78.242706 23.846306,77.197037 
	C19.270216,71.979866 17.071835,65.867386 17.976196,58.160141 
	C18.367195,56.752922 18.719021,56.020779 19.070847,55.288631 
	C21.638184,52.298161 23.843182,48.867805 26.840273,46.399063 
	C36.117371,38.757397 49.721451,40.202244 57.805439,49.263973 
	C65.566826,57.964081 64.215866,72.887657 55.215519,78.915703 
	C54.949795,78.135376 55.011608,77.601028 55.073425,77.066689 
	C55.073421,77.066689 55.001068,77.000000 55.388081,76.978340 
	C60.791645,70.162712 61.224751,63.362339 57.003132,57.674774 
	C55.412888,55.970173 53.822643,54.265572 52.032589,51.915756 
	C45.996281,46.792858 38.368416,46.326878 33.079849,50.124947 
z"/>
<path fill="#BFB0C1" opacity="1.000000" stroke="none" 
	d="
M18.786045,55.078064 
	C18.719021,56.020779 18.367195,56.752922 17.932453,57.776985 
	C14.892371,55.373638 16.308695,52.540596 17.359064,49.528614 
	C19.385935,43.716461 23.411308,39.845905 28.485767,36.679703 
	C29.738853,35.897842 30.329620,34.054485 31.429043,32.092220 
	C33.448269,31.008066 35.263306,30.530787 37.078342,30.053507 
	C39.025311,31.405544 40.803486,33.482525 42.948948,33.982082 
	C51.493313,35.971584 57.395912,40.065674 60.034203,47.671547 
	C58.953144,46.714172 57.854588,45.775753 56.793697,44.796528 
	C44.481892,33.432446 23.975721,38.292435 18.188532,53.968491 
	C18.103674,54.198349 18.388798,54.564793 18.786045,55.078064 
z"/>
<path fill="#AC8D94" opacity="1.000000" stroke="none" 
	d="
M37.454193,30.011879 
	C35.263306,30.530787 33.448269,31.008066 31.412796,31.692781 
	C30.469503,31.714127 29.746649,31.528038 29.023792,31.341949 
	C29.705112,29.588669 30.386433,27.835388 31.484249,25.632053 
	C33.548733,24.929964 35.196724,24.677925 36.844711,24.425886 
	C37.742207,25.115229 38.756023,25.699842 39.500622,26.526842 
	C40.102955,27.195833 40.381130,28.156683 40.803097,28.988068 
	C39.812077,29.315462 38.821060,29.642855 37.454193,30.011879 
z"/>
<path fill="#FEF5F4" opacity="1.000000" stroke="none" 
	d="
M36.871098,24.008005 
	C35.196724,24.677925 33.548733,24.929964 31.556580,25.290688 
	C31.530777,22.911114 31.926682,20.429344 32.135693,17.931932 
	C32.244701,16.629412 32.024544,15.299342 32.005371,14.945957 
	C33.355953,17.332382 35.126720,20.461254 36.871098,24.008005 
z"/>
<path fill="#EB4E43" opacity="1.000000" stroke="none" 
	d="
M54.744095,76.952850 
	C55.011608,77.601028 54.949795,78.135376 54.892525,79.075821 
	C54.897068,79.481926 54.798931,79.880867 54.708031,79.931320 
	C54.549675,78.934181 54.482224,77.886604 54.744095,76.952850 
z"/>
<path fill="#E8453B" opacity="1.000000" stroke="none" 
	d="
M27.035004,76.460403 
	C21.790092,69.956635 21.567568,62.912899 26.705490,55.896610 
	C24.338686,62.507195 24.615206,69.284599 27.035004,76.460403 
z"/>
<path fill="#EB4E43" opacity="1.000000" stroke="none" 
	d="
M56.730293,57.905319 
	C61.224751,63.362339 60.791645,70.162712 55.423317,77.011597 
	C55.610275,75.411720 56.556744,73.769890 56.609810,72.099670 
	C56.757496,67.451370 56.534218,62.791290 56.730293,57.905319 
z"/>
<path fill="#EA4035" opacity="1.000000" stroke="none" 
	d="
M33.498329,50.111237 
	C38.368416,46.326878 45.996281,46.792858 51.841820,51.636574 
	C46.091671,49.307613 40.142303,48.402893 33.498329,50.111237 
z"/>
</svg>