<svg xmlns="http://www.w3.org/2000/svg" xml:space="preserve" fill-rule="evenodd" clip-rule="evenodd" viewBox="0 0 64 64"><clipPath id="a"><path d="M0 0h64v64H0z"/></clipPath><g clip-path="url(#a)"><path fill="url(#b)" fill-rule="nonzero" d="M32 64c17.673 0 32-14.327 32-32C64 14.327 49.673 0 32 0 14.327 0 0 14.327 0 32c0 17.673 14.327 32 32 32Z"/><path fill="#e5adff" fill-rule="nonzero" d="M32 64c17.673 0 32-14.327 32-32C64 14.327 49.673 0 32 0 14.327 0 0 14.327 0 32c0 17.673 14.327 32 32 32Z"/><path fill="url(#c)" fill-rule="nonzero" d="M32 64c17.673 0 32-14.327 32-32C64 14.327 49.673 0 32 0 14.327 0 0 14.327 0 32c0 17.673 14.327 32 32 32Z"/><path fill="url(#d)" fill-rule="nonzero" d="M32 64c17.673 0 32-14.327 32-32C64 14.327 49.673 0 32 0 14.327 0 0 14.327 0 32c0 17.673 14.327 32 32 32Z"/><path fill="url(#e)" fill-rule="nonzero" d="M32 64c17.673 0 32-14.327 32-32C64 14.327 49.673 0 32 0 14.327 0 0 14.327 0 32c0 17.673 14.327 32 32 32Z"/><path fill="url(#f)" fill-rule="nonzero" d="M32 64c17.673 0 32-14.327 32-32C64 14.327 49.673 0 32 0 14.327 0 0 14.327 0 32c0 17.673 14.327 32 32 32Z"/><path fill="url(#g)" fill-rule="nonzero" d="M32 64c17.673 0 32-14.327 32-32C64 14.327 49.673 0 32 0 14.327 0 0 14.327 0 32c0 17.673 14.327 32 32 32Z"/><path fill="none" stroke="#5533eb" stroke-opacity=".15" stroke-width="2.67" d="M62.667 32c0 16.937-13.73 30.667-30.667 30.667S1.333 48.937 1.333 32 15.063 1.333 32 1.333 62.667 15.063 62.667 32Z"/><path fill="#fff" fill-rule="nonzero" d="M13.556 31.992c0 9.023 6.426 16.547 14.951 18.247a1.19 1.19 0 0 0 1.421-1.168V14.916a1.19 1.19 0 0 0-1.421-1.168c-8.525 1.697-14.951 9.22-14.951 18.244ZM42.207 30.131a8.186 8.186 0 1 0 0-16.372 8.186 8.186 0 0 0 0 16.372ZM34.393 35.713v13.44c0 .703.64 1.235 1.329 1.101 7.419-1.44 13.265-7.282 14.701-14.701a1.12 1.12 0 0 0-1.101-1.329h-13.44c-.823 0-1.489.666-1.489 1.489Z"/></g><defs><radialGradient id="c" cx="0" cy="0" r="1" gradientTransform="matrix(34.9362 48.0379 -64.1459 46.6509 5.466 11.73)" gradientUnits="userSpaceOnUse"><stop offset="0" stop-color="#5533eb" stop-opacity=".7"/><stop offset="1" stop-color="#5533eb" stop-opacity="0"/></radialGradient><radialGradient id="d" cx="0" cy="0" r="1" gradientTransform="matrix(-40.2129 -23.8586 38.0647 -64.1567 62.178 62.14)" gradientUnits="userSpaceOnUse"><stop offset="0" stop-color="#e44f4f" stop-opacity=".7"/><stop offset="1" stop-color="#e44f4f" stop-opacity="0"/></radialGradient><radialGradient id="e" cx="0" cy="0" r="1" gradientTransform="matrix(34.9112 -35.4777 53.185 52.3358 0 64)" gradientUnits="userSpaceOnUse"><stop offset="0" stop-color="#e4d54f" stop-opacity=".7"/><stop offset="1" stop-color="#e44f4f" stop-opacity="0"/></radialGradient><radialGradient id="f" cx="0" cy="0" r="1" gradientTransform="matrix(-13.3017 31.5957 -43.1709 -18.1749 43.006 -.7)" gradientUnits="userSpaceOnUse"><stop offset="0" stop-color="#61e3ff" stop-opacity=".7"/><stop offset="1" stop-color="#61e3ff" stop-opacity="0"/></radialGradient><radialGradient id="g" cx="0" cy="0" r="1" gradientTransform="matrix(-27.574 55.3193 -76.6281 -38.1953 59.574 -5.77)" gradientUnits="userSpaceOnUse"><stop offset="0" stop-color="#fff" stop-opacity=".7"/><stop offset="1" stop-color="#fff" stop-opacity="0"/></radialGradient><linearGradient id="b" x1="0" x2="1" y1="0" y2="0" gradientTransform="matrix(0 64 -64 0 32 0)" gradientUnits="userSpaceOnUse"><stop offset="0" stop-color="#d150ff"/><stop offset="1" stop-color="#5458f7"/></linearGradient></defs></svg>
