<svg width="100%" height="100%" viewBox="0 0 613 613" xmlns="http://www.w3.org/2000/svg">
	<rect class="fill-bg-color" x="0" y="0" width="612.4" height="613" fill="#ED342F"/>

	<clipPath id="clip">
		<rect x="0" y="0" width="100%" height="100%"/>
	</clipPath>

	<g clip-path="url(#clip)">
		<g>
			<circle cx="123.7" cy="198.2" r="50.9" fill="#9b9ba9"/>
			<path class="fill-fg-color" d="M121.6,124.1c-37.6,-0 -68.1,29.6 -68.1,66c-0,36.4 30.5,66 68.1,66c37.6,0 68.1,-29.6 68.1,-66c0,-36.4 -30.5,-66 -68.1,-66Zm2.1,130.3c-31,-0 -56.1,-25.1 -56.1,-56.1c0,-31 25.1,-56.1 56.1,-56.1c31,-0 56.1,25.1 56.1,56.1c0,31 -25.2,56.1 -56.1,56.1Z" fill="#ffffff"/>
			<path d="M88.7,95.8c1.7,-10.2 11.6,-17 22.1,-15.2c6.3,1.1 11.4,5 14,10.1c-0.9,-8.1 -7.3,-15.1 -16,-16.5c-10.5,-1.8 -20.4,5.1 -22.1,15.2c-0.7,4.1 0.1,8 1.9,11.5c-0.2,-1.7 -0.2,-3.4 0.1,-5.1Z" fill="#9b9ba9"/>
			<path d="M102.7,85l2.659,17.38l-11.698,3.131l-0.761,-11.511l9.8,-9Z" fill="#bcb9cd"/>
			<path d="M102.7,85l15,3l3.631,13.25l-15.972,1.13l-2.659,-17.38Z" fill="#9b9ba9"/>
			<path d="M49.8,183.8c-0,-38.5 32.2,-69.6 71.8,-69.6c31.8,0 58.8,20.1 68.2,47.9c-4.4,-34.3 -34.6,-60.9 -71.2,-60.9c-39.7,0 -71.8,31.2 -71.8,69.6c0,7.6 1.3,14.9 3.6,21.7c-0.4,-2.8 -0.6,-5.7 -0.6,-8.7Z" fill="#bcb9cd"/>
			<path d="M101.7,191.3l74.116,636.2l-88.216,0c0,0 19.9,-574.5 11,-619.2l3.1,-17Z" fill="#d3d3e3"/>
			<path d="M123.7,174.3l-7,2l-15,15l74.116,636.2l94.907,0l-147.023,-653.2Z" fill="#bcb9cd"/>
			<path d="M123.7,174.3l23,12c0,0 73.028,316.2 177.028,641.2l-53.005,0l-147.023,-653.2Z" fill="#9b9ba9"/>
			<path class="fill-fg-color" d="M90.7,61.9l1.1,13.9c0,0 2.8,-2.4 8.5,-3.7c6.5,-1.5 10.4,0.7 10.4,0.7l-3,-13.1c0,0 -1.7,-6 -10.3,-4.5c-7.4,1.2 -6.7,6.7 -6.7,6.7Z" fill="#ffffff"/>
			<path class="fill-fg-color" d="M91.2,57.5c0.8,-1.5 2.5,-3 6.1,-3.7c4.2,-0.7 6.8,0.3 8.3,1.6l-1,-4.2c0,0 -1.3,-4.8 -8.3,-3.6c-6,1 -5.4,5.4 -5.4,5.4l0.3,4.5Z" fill="#ffffff"/>
			<path class="fill-fg-color" d="M93.8,47.5c0.3,-0.6 1.1,-1.3 2.6,-1.6c1.8,-0.3 2.9,0.1 3.5,0.7l-0.9,-5.1c0,0 -0.6,-2.1 -3.5,-1.5c-2.6,0.4 -2.3,2.3 -2.3,2.3l0.6,5.2Z" fill="#ffffff"/>
			<path class="fill-fg-color" d="M93.1,39.1c0.3,-0.5 0.8,-1 2,-1.2c1.4,-0.2 2.3,0.1 2.8,0.5l-0.6,-4.6c-0,0 -0.4,-1.6 -2.8,-1.2c-2,0.3 -1.8,1.8 -1.8,1.8l0.4,4.7Z" fill="#ffffff"/>
		</g>
		<g>
			<path class="fill-fg-color" d="M506.8,351.4l44.6,-28.4c0,-0 -19.2,-46.1 -82.3,-44.6c-63,1.5 -83.4,43.1 -83,79.2c0.4,33.1 15,51.9 43.1,68c24.1,13.9 63.8,28.8 73,38.1c9.2,9.3 11.1,15.8 10.4,24.6c-0.8,8.8 -10,24.6 -27.3,27.3c0,0 -41.9,10 -70,-34.2l-43.1,26.5c0,0 10.4,30.4 49.2,46.5c38.8,16.1 88.8,11.1 113.8,-7.3c0,0 31.1,-18.8 31.9,-62.7c0.8,-43.8 -24.6,-64.2 -55,-79.2c-30.4,-15 -60.1,-25.7 -66.9,-34.2c-8.8,-11.1 -11.1,-25.8 2.7,-39.2c13.9,-13.5 45,-11.2 58.9,19.6Z" fill="#ffffff"/>
			<path class="fill-fg-color" d="M248.4,564.3c0,-0 41.5,1.5 66.1,-24.6c22,-22 19,-51.8 20,-68.7l0,-189.1l-55.9,-0l0,200.9c0,-0 1.5,32.3 -30.8,32.3c-29.8,-0 -38.4,-30.8 -38.4,-30.8l-45.6,28.2c0,0.1 19.5,50.8 84.6,51.8Z" fill="#ffffff"/>
		</g>
	</g>
</svg>