<svg xmlns="http://www.w3.org/2000/svg" viewBox="0 0 613 613"><path fill="#ED342F" d="M0 0h612.4v613H0z" /><circle cx="123.7" cy="198.2" r="50.9" fill="#9b9ba9" /><path fill="#fff" d="M121.6 124.1c-37.6 0-68.1 29.6-68.1 66s30.5 66 68.1 66c37.6 0 68.1-29.6 68.1-66s-30.5-66-68.1-66Zm2.1 130.3c-31 0-56.1-25.1-56.1-56.1s25.1-56.1 56.1-56.1 56.1 25.1 56.1 56.1-25.2 56.1-56.1 56.1Z" /><path fill="#9b9ba9" d="M88.7 95.8c1.7-10.2 11.6-17 22.1-15.2 6.3 1.1 11.4 5 14 10.1-.9-8.1-7.3-15.1-16-16.5-10.5-1.8-20.4 5.1-22.1 15.2-.7 4.1.1 8 1.9 11.5-.2-1.7-.2-3.4.1-5.1Z" /><path fill="#bcb9cd" d="m102.7 85 2.66 17.38-11.7 3.13L92.9 94l9.8-9Z" /><path fill="#9b9ba9" d="m102.7 85 15 3 3.63 13.25-15.97 1.13L102.7 85Z" /><path fill="#bcb9cd" d="M49.8 183.8c0-38.5 32.2-69.6 71.8-69.6 31.8 0 58.8 20.1 68.2 47.9-4.4-34.3-34.6-60.9-71.2-60.9-39.7 0-71.8 31.2-71.8 69.6 0 7.6 1.3 14.9 3.6 21.7-.4-2.8-.6-5.7-.6-8.7Z" /><path fill="#d3d3e3" d="m101.7 191.3 74.12 636.2H87.6s19.9-574.5 11-619.2l3.1-17Z" /><path fill="#bcb9cd" d="m123.7 174.3-7 2-15 15 74.12 636.2h94.9L123.7 174.3Z" /><path fill="#9b9ba9" d="m123.7 174.3 23 12s73.03 316.2 177.03 641.2h-53L123.7 174.3Z" /><path fill="#fff" d="m90.7 61.9 1.1 13.9s2.8-2.4 8.5-3.7c6.5-1.5 10.4.7 10.4.7l-3-13.1s-1.7-6-10.3-4.5c-7.4 1.2-6.7 6.7-6.7 6.7Z" /><path fill="#fff" d="M91.2 57.5c.8-1.5 2.5-3 6.1-3.7 4.2-.7 6.8.3 8.3 1.6l-1-4.2s-1.3-4.8-8.3-3.6c-6 1-5.4 5.4-5.4 5.4l.3 4.5ZM93.8 47.5c.3-.6 1.1-1.3 2.6-1.6 1.8-.3 2.9.1 3.5.7l-.9-5.1s-.6-2.1-3.5-1.5c-2.6.4-2.3 2.3-2.3 2.3l.6 5.2ZM93.1 39.1c.3-.5.8-1 2-1.2 1.4-.2 2.3.1 2.8.5l-.6-4.6s-.4-1.6-2.8-1.2c-2 .3-1.8 1.8-1.8 1.8l.4 4.7Z" /><path fill="#fff" d="m506.8 351.4 44.6-28.4s-19.2-46.1-82.3-44.6c-63 1.5-83.4 43.1-83 79.2.4 33.1 15 51.9 43.1 68 24.1 13.9 63.8 28.8 73 38.1 9.2 9.3 11.1 15.8 10.4 24.6-.8 8.8-10 24.6-27.3 27.3 0 0-41.9 10-70-34.2l-43.1 26.5s10.4 30.4 49.2 46.5c38.8 16.1 88.8 11.1 113.8-7.3 0 0 31.1-18.8 31.9-62.7.8-43.8-24.6-64.2-55-79.2S452 379.5 445.2 371c-8.8-11.1-11.1-25.8 2.7-39.2 13.9-13.5 45-11.2 58.9 19.6ZM248.4 564.3s41.5 1.5 66.1-24.6c22-22 19-51.8 20-68.7V281.9h-55.9v200.9s1.5 32.3-30.8 32.3c-29.8 0-38.4-30.8-38.4-30.8l-45.6 28.2c0 .1 19.5 50.8 84.6 51.8Z" /></svg>
