<svg xmlns="http://www.w3.org/2000/svg" viewBox="0 0 512 512"><path fill="#ee3124" d="M512 153.6C512 68.83 443.17 0 358.4 0H153.6C68.83 0 0 68.83 0 153.6v204.8C0 443.17 68.83 512 153.6 512h204.8c84.77 0 153.6-68.83 153.6-153.6V153.6Z" class="fill-bg-color"/><clipPath id="a"><path d="M512 153.6C512 68.83 443.17 0 358.4 0H153.6C68.83 0 0 68.83 0 153.6v204.8C0 443.17 68.83 512 153.6 512h204.8c84.77 0 153.6-68.83 153.6-153.6V153.6Z"/></clipPath><g clip-path="url(#a)"><ellipse cx="232.16" cy="371.58" fill="#9b9ba9" rx="95.53" ry="95.43"/><path fill="#fff" d="M158.81 460.28c-35.14-22.07-58.4-60.39-58.4-103.89 0-68.24 57.24-123.73 127.81-123.73s127.82 55.5 127.82 123.73c0 32.07-12.64 61.32-33.37 83.32l-2.5-10.24a104.5 104.5 0 0 0 17.28-57.7c0-58.12-47.1-105.18-105.29-105.18-58.18 0-105.29 47.06-105.29 105.18 0 29.73 12.33 56.57 32.17 75.7l-.23 12.81Z" class="fill-fg-color"/><path fill="#9b9ba9" d="M166.47 179.6c3.2-19.12 21.78-31.87 41.48-28.5 11.83 2.07 21.4 9.38 26.28 18.94-1.69-15.18-13.7-28.3-30.03-30.93-19.7-3.38-38.29 9.56-41.48 28.5-1.31 7.68.19 15 3.57 21.55-.38-3.18-.38-6.37.19-9.56Z"/><path fill="#bcb9cd" d="m192.75 159.36 6.95 32.43-23.84 7.12-1.5-22.68 18.4-16.87Z"/><path fill="#9b9ba9" d="m192.75 159.36 28.15 5.62 6.95 25.3-29.84 3.38-5.26-34.3Z"/><path fill="#bcb9cd" d="M93.47 344.58c0-72.18 60.43-130.48 134.75-130.48 59.69 0 110.36 37.68 128 89.8-8.26-64.3-64.94-114.17-133.63-114.17-74.5 0-134.75 58.49-134.75 130.48a126.7 126.7 0 0 0 6.75 40.68 115.22 115.22 0 0 1-1.12-16.3Z"/><path fill="#d3d3e3" d="m190.87 358.64 148.46 1192.73H164.41l20.65-1160.86 5.81-31.87Z"/><path fill="#bcb9cd" d="m232.16 326.77-41.29 31.87 139.1 1192.73h178.98L232.16 326.77Z"/><path fill="#9b9ba9" d="m232.16 326.77 43.17 22.5s137.01 592.62 332.2 1201.92l-99.43.19-275.94-1224.6Z"/><path fill="#fff" d="m176.06 79-5.53 26.98v.02c-.48 2.32-.3 4.06-.3 4.06l2.06 32.05s5.26-5.54 15.96-8.53c12.2-3.46 19.52 1.61 19.52 1.61l-5.63-30.2s-.4-1.7-1.6-3.75l-12.87-22.85s-1.99-4.85-7.43-3.33a5 5 0 0 0-4.18 3.94Z" class="fill-fg-color"/></g></svg>
