<svg width="300" viewBox="0 0 123 20" fill="none" xmlns="http://www.w3.org/2000/svg">
	<path d="M12.4426 5.79488C12.7596 5.79488 12.9047 6.18634 12.6669 6.39488L1.70228 15.9583C1.42179 16.2034 1.00228 15.8803 1.17423 15.5449L4.45717 9.07659H2.53521C2.28033 9.07659 2.11326 8.80708 2.23033 8.57781L6.2462 0.672914C6.30351 0.55584 6.42303 0.486328 6.55107 0.486328H12.9694C13.2572 0.486328 13.4182 0.826573 13.2304 1.05096L9.2645 5.79122H12.4462L12.4438 5.7961H12.4426V5.79488Z" fill="#FF0099" />
	<path d="M87.7878 4.29712C84.5951 4.29712 81.0537 6.90688 81.0537 11.124C81.0537 14.2228 83.2439 16.041 85.8769 16.041C88.3708 16.041 89.7013 15.052 90.1574 14.6581C90.2488 14.5789 90.2903 14.4581 90.2671 14.3398L89.9318 12.6788C89.9013 12.5276 89.7232 12.4618 89.6013 12.5557C89.1525 12.8996 88.1586 13.524 86.8573 13.524C85.25 13.524 84.1781 12.4057 84.1781 10.6581C84.1781 8.28127 85.8793 6.78981 87.7427 6.78981C89.0891 6.78981 89.8793 7.37639 90.272 7.76542C90.372 7.86542 90.5403 7.83981 90.6049 7.71298L91.5074 5.9459C91.572 5.82029 91.5488 5.66907 91.4525 5.56541C91.0488 5.13492 90.0866 4.2959 87.7903 4.2959L87.7878 4.29712Z" fill="black" />
	<path d="M98.6538 4.29785C94.972 4.29785 91.7794 7.04786 91.7794 11.0784C91.7794 14.1076 93.8294 16.0418 96.7891 16.0418C100.471 16.0418 103.664 13.3393 103.664 9.28445C103.664 6.27834 101.614 4.29785 98.6538 4.29785ZM97.1855 13.5723C95.6245 13.5723 94.855 12.3601 94.855 10.7991C94.855 8.58567 96.1599 6.69786 98.2806 6.69786C99.7952 6.69786 100.611 7.88567 100.611 9.49421C100.611 11.6845 99.2135 13.5723 97.1855 13.5723Z" fill="black" />
	<path d="M118.977 4.29785C117.345 4.29785 115.994 5.06737 115.062 6.44176C114.783 4.95029 113.944 4.29785 112.57 4.29785C109.934 4.29785 108.818 6.20883 108.818 6.20883C108.842 5.882 108.888 5.55639 108.888 5.18322C108.888 5.04176 108.877 4.90151 108.871 4.74541C108.865 4.61249 108.755 4.50761 108.622 4.50761H106.215C106.07 4.50761 105.955 4.63078 105.966 4.7759C105.978 4.92834 105.99 5.08444 105.976 5.22956C105.976 5.64907 105.929 6.02225 105.859 6.53444L104.437 15.4967C104.412 15.6479 104.529 15.7857 104.683 15.7857H107.114C107.237 15.7857 107.34 15.6967 107.36 15.5759L108.259 9.96006C108.538 8.18932 109.354 6.7442 110.799 6.7442C111.801 6.7442 112.15 7.44298 112.15 8.49176C112.15 8.7942 112.127 9.12103 112.081 9.44665L111.125 15.4967C111.1 15.6479 111.217 15.7857 111.371 15.7857H113.778C113.901 15.7857 114.005 15.6967 114.025 15.5759L114.923 9.96006C115.226 8.02591 116.136 6.7442 117.464 6.7442C118.512 6.7442 118.815 7.51371 118.815 8.49176C118.815 8.7942 118.792 9.14421 118.722 9.47104L118.187 12.8503C118.023 13.9454 117.954 14.5284 117.954 15.204V15.5369C117.954 15.6747 118.066 15.7869 118.204 15.7869H120.622C120.764 15.7869 120.876 15.6686 120.871 15.5271C120.867 15.4174 120.867 15.3076 120.867 15.204C120.867 14.5515 120.984 13.9686 121.054 13.3393L121.729 8.98201C121.822 8.46981 121.87 7.97957 121.87 7.49054C121.87 5.65029 121.148 4.29785 118.981 4.29785H118.977Z" fill="black" />
	<path d="M21.6523 5.90368C20.9414 5.67076 19.9182 5.35002 19.9182 4.77929C19.9182 4.2988 20.5133 4.05612 21.195 4.05612C22.1901 4.05612 23.4694 4.58539 24.3548 5.3488C24.4548 5.43539 24.6084 5.41344 24.695 5.31344L26.8511 2.63416C26.9328 2.53904 26.9328 2.39758 26.8487 2.30489C25.8828 1.23904 24.3109 0.259766 22.0548 0.259766C20.1328 0.259766 18.4011 0.792694 17.1779 1.76099C15.8377 2.82197 15.1584 4.03904 15.1584 5.87563C15.1584 8.02686 17.0889 9.35003 19.1218 10.1195C20.1292 10.5013 20.9365 10.7952 20.9365 11.2988C20.9365 11.8415 20.2487 12.0342 19.6596 12.0342C18.4779 12.0342 16.9596 11.311 16.0877 10.5574C15.9852 10.4695 15.834 10.4744 15.7413 10.5732L13.1316 13.2586C13.0426 13.3537 13.0401 13.5013 13.1279 13.5976C14.4438 15.061 17.0462 16.0561 19.2145 16.0561C23.0462 16.0561 25.7938 13.6732 25.7938 10.1903C25.7938 8.32686 24.3206 6.77686 21.6523 5.9049V5.90368Z" fill="black" />
	<path d="M39.5902 4.79781C39.6146 4.64659 39.4975 4.50879 39.3438 4.50879H35.1755C35.0524 4.50879 34.9487 4.59781 34.9292 4.71855L34.0072 10.5051C33.945 10.9003 33.7572 12.1015 32.6414 12.1015C32.0097 12.1015 31.7036 11.7503 31.7036 11.0271C31.7036 10.6344 31.8072 9.93807 31.8865 9.44783L32.4292 6.12587C32.4877 5.77221 32.5182 5.43684 32.5182 5.12952C32.5182 4.9722 32.5109 4.8405 32.5011 4.7344C32.4902 4.60635 32.3816 4.50879 32.2524 4.50879H28.0816C27.9389 4.50879 27.8255 4.6283 27.8328 4.7722C27.8377 4.86367 27.8414 4.96855 27.8414 5.0844C27.8414 5.36367 27.817 5.68928 27.7731 6.02709L26.9365 11.4088C26.8475 11.8991 26.8023 12.4088 26.8023 12.9259C26.8023 14.9442 27.9865 16.0552 30.1353 16.0552C31.245 16.0552 32.3853 15.6052 33.2609 14.821L33.5292 14.5808L33.467 14.9356C33.4194 15.2088 33.4316 15.4235 33.4597 15.5771C33.4816 15.6966 33.5841 15.7844 33.706 15.7844H37.7768C37.9231 15.7844 38.0365 15.66 38.0255 15.5149C38.017 15.4027 38.0109 15.2698 38.0109 15.1186C38.0109 14.8795 38.0353 14.5759 38.0804 14.2649L39.5938 4.79781H39.5902Z" fill="black" />
	<path d="M49.5585 4.2832C48.1817 4.2832 46.828 4.76979 45.9365 5.58443L45.6682 5.82955C45.6682 5.82955 45.7341 5.41247 45.7414 5.24418C45.75 5.05272 45.7463 4.94662 45.7219 4.75394C45.7048 4.61979 45.6073 4.51003 45.4719 4.51003H41.6536C41.5109 4.51003 41.3975 4.62955 41.4048 4.77345C41.4097 4.86491 41.4134 4.96979 41.4134 5.08564C41.4134 5.37833 41.3877 5.72223 41.3438 6.02955L39.3999 18.1223C39.339 18.4918 39.3109 18.7845 39.3109 19.0747C39.3109 19.2528 39.317 19.3967 39.3292 19.5162C39.3426 19.6442 39.4487 19.7406 39.578 19.7406H43.7768C43.9231 19.7406 44.0365 19.6162 44.0256 19.471C44.017 19.3589 44.0109 19.2259 44.0109 19.0747C44.0109 18.8503 44.0109 18.5418 44.0817 18.2125L44.6304 14.5162L44.8085 14.832C45.2682 15.6442 46.2268 16.0564 47.6597 16.0564C51.5853 16.0564 53.7049 12.3601 53.7049 8.882C53.7049 7.55882 53.3402 6.42711 52.65 5.60882C51.9183 4.74174 50.8487 4.2832 49.5585 4.2832ZM46.7341 12.1698C45.7939 12.1698 45.1634 11.5113 45.1634 10.5308C45.1634 9.29175 45.9792 8.01126 47.3451 8.01126C48.3 8.01126 48.9158 8.6637 48.9158 9.67224C48.9158 10.9003 48.1 12.1698 46.7341 12.1698Z" fill="black" />
	<path d="M61.4805 4.28125C57.4012 4.28125 54.4402 7.28004 54.4402 11.4118C54.4402 14.3191 56.4744 16.0557 59.8817 16.0557C61.0902 16.0557 62.9158 16.0557 65.1171 14.5459C65.2415 14.4605 65.278 14.2923 65.2012 14.1618V14.1593L64.2744 12.4422C64.1988 12.313 64.0305 12.2654 63.8939 12.3349L63.861 12.352C63.3902 12.5922 62.5146 13.074 61.3341 13.074C59.7939 13.074 58.8354 12.1508 58.7988 11.2581L58.7939 11.1349L58.9097 11.1776C58.9219 11.1825 60.1463 11.6203 61.8158 11.6203C63.289 11.6203 64.3561 11.3374 65.0793 10.7569C65.8207 10.1605 66.1817 9.26053 66.1817 8.00687C66.1817 7.13248 65.8427 4.28125 61.4805 4.28125ZM60.6719 9.30809C60.0622 9.30809 59.5122 9.23004 59.1012 9.16053L59.0195 9.14712L59.0329 9.06541C59.2854 7.5837 60.4415 6.7837 61.4 6.7837C62.2183 6.7837 62.7463 7.20687 62.7463 7.86297C62.7463 8.75321 61.9512 9.30687 60.6695 9.30687L60.6719 9.30809Z" fill="black" />
	<path d="M75.8598 8.37221L76.5147 4.84659C76.5476 4.66977 76.4805 4.52708 76.2769 4.52098H75.3342C74.0476 4.52098 73.083 4.8222 72.4195 6.00026H72.3976C72.4976 5.41733 72.4793 4.94903 72.4256 4.71489C72.3988 4.59659 72.3 4.50879 72.1793 4.50879H68.1732C68.0305 4.50879 67.9171 4.6283 67.9244 4.7722C67.9293 4.86367 67.9329 4.96855 67.9329 5.0844C67.9329 5.35269 67.9329 5.65757 67.8866 6.00513L66.3732 15.4954C66.3488 15.6466 66.4659 15.7844 66.6195 15.7844H70.7708C70.8939 15.7844 70.9976 15.6954 71.0171 15.5747L71.6903 11.3698C71.9732 9.51612 72.8049 8.57587 74.1635 8.57587H75.6147C75.7354 8.57587 75.8378 8.49051 75.8598 8.37221Z" fill="black" />
	<path d="M77.3159 12.585C76.0818 12.585 75.1732 13.3764 75.1732 14.6106C75.1732 15.4959 75.7781 16.0545 76.7561 16.0545C77.8976 16.0545 78.8757 15.2862 78.8757 14.0752C78.8757 13.1435 78.2232 12.585 77.3159 12.585Z" fill="black" />
</svg>
